HIERARCHY
ROOT Hips
{
	OFFSET 0.000000 71.427986 0.000000
	CHANNELS 6 Xposition Yposition Zposition Xrotation Yrotation Zrotation
	JOINT Pelvis
	{
		OFFSET 0.000000 0.000000 0.000000
		CHANNELS 3 Xrotation Yrotation Zrotation
		JOINT LeftUpLeg
		{
			OFFSET 6.797100 -2.508499 -1.318700
			CHANNELS 3 Xrotation Yrotation Zrotation
			JOINT LeftLeg
			{
				OFFSET 0.069008 -29.241863 0.690200
				CHANNELS 3 Xrotation Yrotation Zrotation
				JOINT LeftFoot
				{
					OFFSET -0.069008 -29.568123 -0.266800
					CHANNELS 3 Xrotation Yrotation Zrotation
					JOINT LeftToeBase
					{
						OFFSET 3.145500 -8.631000 16.059900
						CHANNELS 3 Xrotation Yrotation Zrotation
						End Site
						{
							OFFSET 0.000000 18.501587 0.000000
						}
					}
				}
			}
			JOINT Left_ShortSleeve
			{
				OFFSET 0.265923 -10.480953 1.153800
				CHANNELS 3 Xrotation Yrotation Zrotation
				End Site
				{
					OFFSET 1.725763 19.823879 0.000000
				}
			}
		}
		JOINT RightUpLeg
		{
			OFFSET -6.797100 -2.508499 -1.318700
			CHANNELS 3 Xrotation Yrotation Zrotation
			JOINT RightLeg
			{
				OFFSET -0.082453 -29.241932 0.688000
				CHANNELS 3 Xrotation Yrotation Zrotation
				JOINT RightFoot
				{
					OFFSET 0.082453 -29.568058 -0.264600
					CHANNELS 3 Xrotation Yrotation Zrotation
					JOINT RightToeBase
					{
						OFFSET -3.115300 -8.682800 16.113400
						CHANNELS 3 Xrotation Yrotation Zrotation
						End Site
						{
							OFFSET 0.000000 18.567114 0.000000
						}
					}
				}
			}
			JOINT Right_ShortSleeve
			{
				OFFSET -0.265923 -10.480953 1.153800
				CHANNELS 3 Xrotation Yrotation Zrotation
				End Site
				{
					OFFSET -1.725766 19.823910 0.000000
				}
			}
		}
	}
	JOINT Spine
	{
		OFFSET 0.000000 13.368103 0.470500
		CHANNELS 3 Xrotation Yrotation Zrotation
		JOINT Spine1
		{
			OFFSET 0.147000 13.837402 0.538800
			CHANNELS 3 Xrotation Yrotation Zrotation
			JOINT Spine2
			{
				OFFSET 0.168000 16.242897 -1.435500
				CHANNELS 3 Xrotation Yrotation Zrotation
				JOINT Neck
				{
					OFFSET 0.217200 18.631500 -1.679100
					CHANNELS 3 Xrotation Yrotation Zrotation
					JOINT Head
					{
						OFFSET 0.000000 6.599396 1.385900
						CHANNELS 3 Xrotation Yrotation Zrotation
						JOINT Hat
						{
							OFFSET -0.532200 27.220596 -10.096100
							CHANNELS 3 Xrotation Yrotation Zrotation
							End Site
							{
								OFFSET 0.000000 22.029861 0.000000
							}
						}
						JOINT HairD
						{
							OFFSET -10.777400 17.437393 -1.325900
							CHANNELS 3 Xrotation Yrotation Zrotation
							JOINT HairD1
							{
								OFFSET -3.290299 -11.051193 1.062200
								CHANNELS 3 Xrotation Yrotation Zrotation
								End Site
								{
									OFFSET 0.000000 11.579437 0.000000
								}
							}
						}
						JOINT HairB
						{
							OFFSET -10.777400 17.437393 1.467900
							CHANNELS 3 Xrotation Yrotation Zrotation
							JOINT HairB1
							{
								OFFSET -1.561200 -12.956299 3.590200
								CHANNELS 3 Xrotation Yrotation Zrotation
								End Site
								{
									OFFSET 0.000000 13.534866 0.000000
								}
							}
						}
						JOINT HairA
						{
							OFFSET 9.713100 17.437393 1.467900
							CHANNELS 3 Xrotation Yrotation Zrotation
							JOINT HairA1
							{
								OFFSET 1.561200 -12.956299 3.590200
								CHANNELS 3 Xrotation Yrotation Zrotation
								End Site
								{
									OFFSET 0.000000 13.534866 0.000000
								}
							}
						}
						JOINT HairC
						{
							OFFSET 9.713100 17.437393 -1.325900
							CHANNELS 3 Xrotation Yrotation Zrotation
							JOINT HairC1
							{
								OFFSET 3.290300 -11.051193 1.062200
								CHANNELS 3 Xrotation Yrotation Zrotation
								End Site
								{
									OFFSET 0.000000 11.579437 0.000000
								}
							}
						}
					}
				}
				JOINT LeftShoulder
				{
					OFFSET 5.101800 15.108002 -2.763700
					CHANNELS 3 Xrotation Yrotation Zrotation
					JOINT LeftArm
					{
						OFFSET 9.825497 2.506317 -1.597400
						CHANNELS 3 Xrotation Yrotation Zrotation
						JOINT LeftForeArm
						{
							OFFSET 21.966244 0.000000 0.000000
							CHANNELS 3 Xrotation Yrotation Zrotation
							JOINT LeftHand
							{
								OFFSET 33.879036 0.000000 0.000000
								CHANNELS 3 Xrotation Yrotation Zrotation
								JOINT LeftHandThumb1
								{
									OFFSET 6.715286 -2.359680 3.363841
									CHANNELS 3 Xrotation Yrotation Zrotation
									JOINT LeftHandThumb2
									{
										OFFSET 2.507072 -1.447464 1.447461
										CHANNELS 3 Xrotation Yrotation Zrotation
										JOINT LeftHandThumb3
										{
											OFFSET 2.898338 -1.673355 1.673357
											CHANNELS 3 Xrotation Yrotation Zrotation
											End Site
											{
												OFFSET -0.295959 3.727692 -0.131651
											}
										}
									}
								}
								JOINT LeftHandIndex1
								{
									OFFSET 14.190811 -0.254547 3.840278
									CHANNELS 3 Xrotation Yrotation Zrotation
									JOINT LeftHandIndex2
									{
										OFFSET 3.551727 0.000000 -0.000000
										CHANNELS 3 Xrotation Yrotation Zrotation
										JOINT LeftHandIndex3
										{
											OFFSET 2.894196 0.000000 0.000000
											CHANNELS 3 Xrotation Yrotation Zrotation
											End Site
											{
												OFFSET -1.000603 2.690872 0.366626
											}
										}
									}
								}
								JOINT LeftHandMiddle1
								{
									OFFSET 13.776489 0.000000 0.000000
									CHANNELS 3 Xrotation Yrotation Zrotation
									JOINT LeftHandMiddle2
									{
										OFFSET 3.438232 0.000000 0.000000
										CHANNELS 3 Xrotation Yrotation Zrotation
										JOINT LeftHandMiddle3
										{
											OFFSET 3.691551 0.000000 0.000000
											CHANNELS 3 Xrotation Yrotation Zrotation
											End Site
											{
												OFFSET -1.082298 3.499527 0.457670
											}
										}
									}
								}
								JOINT LeftHandRing1
								{
									OFFSET 13.966164 -0.268127 -3.067488
									CHANNELS 3 Xrotation Yrotation Zrotation
									JOINT LeftHandRing2
									{
										OFFSET 3.162567 0.000000 0.000000
										CHANNELS 3 Xrotation Yrotation Zrotation
										JOINT LeftHandRing3
										{
											OFFSET 3.324348 0.000000 0.000000
											CHANNELS 3 Xrotation Yrotation Zrotation
											End Site
											{
												OFFSET -0.861900 3.184998 0.405154
											}
										}
									}
								}
								JOINT LeftHandPinky1
								{
									OFFSET 13.131393 -0.168503 -5.746925
									CHANNELS 3 Xrotation Yrotation Zrotation
									JOINT LeftHandPinky2
									{
										OFFSET 2.849182 0.000000 0.000000
										CHANNELS 3 Xrotation Yrotation Zrotation
										JOINT LeftHandPinky3
										{
											OFFSET 2.805038 0.000000 0.000000
											CHANNELS 3 Xrotation Yrotation Zrotation
											End Site
											{
												OFFSET -0.882500 2.642609 0.325652
											}
										}
									}
								}
							}
							JOINT Left_Sleeve
							{
								OFFSET 6.592125 -0.646545 0.805568
								CHANNELS 3 Xrotation Yrotation Zrotation
								End Site
								{
									OFFSET -0.000179 20.275787 -0.000000
								}
							}
						}
					}
				}
				JOINT RightShoulder
				{
					OFFSET -5.731700 15.108002 -2.763700
					CHANNELS 3 Xrotation Yrotation Zrotation
					JOINT RightArm
					{
						OFFSET -9.825497 2.506317 -1.597400
						CHANNELS 3 Xrotation Yrotation Zrotation
						JOINT RightForeArm
						{
							OFFSET -21.966242 0.000000 0.000000
							CHANNELS 3 Xrotation Yrotation Zrotation
							JOINT RightHand
							{
								OFFSET -33.879032 0.000000 0.000000
								CHANNELS 3 Xrotation Yrotation Zrotation
								JOINT RightHandThumb1
								{
									OFFSET -6.715286 -2.359680 3.363841
									CHANNELS 3 Xrotation Yrotation Zrotation
									JOINT RightHandThumb2
									{
										OFFSET -2.507072 -1.447464 1.447461
										CHANNELS 3 Xrotation Yrotation Zrotation
										JOINT RightHandThumb3
										{
											OFFSET -2.898338 -1.673355 1.673357
											CHANNELS 3 Xrotation Yrotation Zrotation
											End Site
											{
												OFFSET 0.295959 3.727692 -0.131651
											}
										}
									}
								}
								JOINT RightHandIndex1
								{
									OFFSET -14.190811 -0.254547 3.840278
									CHANNELS 3 Xrotation Yrotation Zrotation
									JOINT RightHandIndex2
									{
										OFFSET -3.551727 0.000000 -0.000000
										CHANNELS 3 Xrotation Yrotation Zrotation
										JOINT RightHandIndex3
										{
											OFFSET -2.894196 0.000000 0.000000
											CHANNELS 3 Xrotation Yrotation Zrotation
											End Site
											{
												OFFSET 1.000603 2.690872 0.366626
											}
										}
									}
								}
								JOINT RightHandMiddle1
								{
									OFFSET -13.776489 0.000000 0.000000
									CHANNELS 3 Xrotation Yrotation Zrotation
									JOINT RightHandMiddle2
									{
										OFFSET -3.438232 0.000000 0.000000
										CHANNELS 3 Xrotation Yrotation Zrotation
										JOINT RightHandMiddle3
										{
											OFFSET -3.691551 0.000000 0.000000
											CHANNELS 3 Xrotation Yrotation Zrotation
											End Site
											{
												OFFSET 1.082298 3.499527 0.457670
											}
										}
									}
								}
								JOINT RightHandRing1
								{
									OFFSET -13.966164 -0.268127 -3.067488
									CHANNELS 3 Xrotation Yrotation Zrotation
									JOINT RightHandRing2
									{
										OFFSET -3.162567 0.000000 0.000000
										CHANNELS 3 Xrotation Yrotation Zrotation
										JOINT RightHandRing3
										{
											OFFSET -3.324348 0.000000 0.000000
											CHANNELS 3 Xrotation Yrotation Zrotation
											End Site
											{
												OFFSET 0.861900 3.184998 0.405154
											}
										}
									}
								}
								JOINT RightHandPinky1
								{
									OFFSET -13.131393 -0.168503 -5.746925
									CHANNELS 3 Xrotation Yrotation Zrotation
									JOINT RightHandPinky2
									{
										OFFSET -2.849182 0.000000 0.000000
										CHANNELS 3 Xrotation Yrotation Zrotation
										JOINT RightHandPinky3
										{
											OFFSET -2.805038 0.000000 0.000000
											CHANNELS 3 Xrotation Yrotation Zrotation
											End Site
											{
												OFFSET 0.882500 2.642609 0.325652
											}
										}
									}
								}
							}
							JOINT Right_Sleeve
							{
								OFFSET -6.592125 -0.646545 0.805568
								CHANNELS 3 Xrotation Yrotation Zrotation
								End Site
								{
									OFFSET 0.000179 20.275787 -0.000000
								}
							}
						}
					}
				}
				JOINT Bind_Right_JacketString
				{
					OFFSET -3.534800 11.969597 7.200700
					CHANNELS 3 Xrotation Yrotation Zrotation
					JOINT Bind_Right_JacketString1
					{
						OFFSET -0.319900 -6.102600 2.794100
						CHANNELS 3 Xrotation Yrotation Zrotation
						End Site
						{
							OFFSET 0.000000 6.719452 0.000000
						}
					}
				}
				JOINT Bind_Left_JacketString
				{
					OFFSET 2.904800 11.969597 7.200700
					CHANNELS 3 Xrotation Yrotation Zrotation
					JOINT Bind_Left_JacketString1
					{
						OFFSET 0.364800 -5.904503 3.186800
						CHANNELS 3 Xrotation Yrotation Zrotation
						End Site
						{
							OFFSET 0.000000 6.719513 0.000000
						}
					}
				}
				JOINT HairE
				{
					OFFSET 5.915200 17.612701 -11.592200
					CHANNELS 3 Xrotation Yrotation Zrotation
					JOINT HairE1
					{
						OFFSET 0.289200 -7.171898 -1.284500
						CHANNELS 3 Xrotation Yrotation Zrotation
						End Site
						{
							OFFSET 0.000000 7.291756 0.000000
						}
					}
				}
				JOINT HairF
				{
					OFFSET -0.864800 17.612701 -11.592200
					CHANNELS 3 Xrotation Yrotation Zrotation
					JOINT HairF1
					{
						OFFSET 0.000000 -14.087097 -2.127501
						CHANNELS 3 Xrotation Yrotation Zrotation
						End Site
						{
							OFFSET 0.000000 14.246841 0.000000
						}
					}
				}
				JOINT HairG
				{
					OFFSET -8.087700 17.612701 -11.592200
					CHANNELS 3 Xrotation Yrotation Zrotation
					JOINT HairG1
					{
						OFFSET -0.293600 -6.081398 -0.910100
						CHANNELS 3 Xrotation Yrotation Zrotation
						End Site
						{
							OFFSET 0.000000 6.156120 0.000000
						}
					}
				}
			}
		}
	}
	JOINT Pouch
	{
		OFFSET 0.000000 4.394501 10.847300
		CHANNELS 3 Xrotation Yrotation Zrotation
		End Site
		{
			OFFSET 0.000000 21.880577 0.000000
		}
	}
	JOINT Bag
	{
		OFFSET -13.229000 4.813004 -0.593300
		CHANNELS 3 Xrotation Yrotation Zrotation
		End Site
		{
			OFFSET 0.000000 21.880577 0.000000
		}
	}
	JOINT OccupyGuyFacialAnim_Joint
	{
		OFFSET 1.000000 -70.206398 -1.655000
		CHANNELS 3 Xrotation Yrotation Zrotation
		End Site
		{
			OFFSET 0.000000 21.880577 0.000000
		}
	}
}
MOTION
Frames: 4
Frame Time: 0.033333
1.633902 63.359245 -6.162129 0.782256 -36.747743 0.004700 0.000000 -0.000003 0.000000 -38.921693 6.686927 19.707647 48.971620 3.654025 -0.526141 -8.673214 1.489196 -11.029846 0.000000 -0.000000 0.000000 0.000003 -0.000002 -0.000001 -23.206008 -8.066547 -14.504498 54.466705 6.981444 -0.935505 -31.984550 -2.710915 7.865568 -0.000000 0.000002 0.000000 -0.000002 0.000001 0.000000 10.719038 -0.209565 0.345446 5.615710 -0.127213 0.166370 5.616023 -0.109565 0.165202 -2.213545 2.007230 1.588782 -6.873750 14.463303 -10.021826 -0.000001 0.000001 0.000001 -0.000001 0.000001 0.000001 -0.000001 0.000001 0.000001 -0.000001 0.000001 0.000000 -0.000001 -0.000001 0.000001 -0.000001 0.000001 0.000000 -0.000001 -0.000001 0.000001 -0.000001 0.000001 0.000001 -0.000001 0.000001 0.000001 1.443265 -23.391769 -4.875968 -75.726253 -2.722331 -26.652609 -0.000039 -103.895175 -0.000038 11.709160 -27.154506 4.428422 0.476760 13.806269 -2.556190 8.298563 13.115199 0.102553 -0.000000 0.000001 -0.000001 5.270132 6.690848 -76.428396 5.270114 6.690811 -76.428437 0.000000 -0.000001 -0.000000 5.696410 6.778929 -80.062070 5.700225 6.779571 -80.094507 0.000001 0.000001 0.000001 7.106753 6.877480 -91.883092 7.106783 6.877527 -91.883099 -0.000002 0.000001 -0.000002 11.187734 6.745179 -91.856878 7.107176 2.791244 -91.887812 -0.000000 0.000000 0.000003 0.000001 0.000001 -0.000002 1.202482 8.420864 -4.346909 -69.751893 21.116518 68.466916 0.000154 111.555444 -0.000164 -2.835342 13.775114 18.300440 -6.808521 3.907134 -1.203858 25.128609 -40.933973 8.421091 -0.000000 -0.000001 0.000000 6.137586 -6.901034 83.283679 6.137563 -6.900993 83.283720 -0.000001 0.000000 -0.000001 6.137582 -6.901023 83.283686 6.137576 -6.901011 83.283707 -0.000000 -0.000001 -0.000003 6.137558 -6.900971 83.283673 6.137581 -6.901018 83.283707 0.000003 -0.000003 0.000001 6.137579 -6.901023 83.283679 6.137587 -6.901025 83.283720 -0.000001 0.000001 0.000002 0.000001 -0.000001 -0.000001 -0.000000 0.000002 -0.000001 0.000002 -0.000003 0.000000 -0.000000 0.000002 -0.000001 -0.000000 0.000002 -0.000001 -0.000000 0.000002 -0.000001 0.000002 -0.000003 0.000001 -0.000000 0.000002 -0.000001 -0.000000 0.000002 -0.000001 -0.000000 0.000002 -0.000001 0.000002 -0.000003 0.000001 0.000000 -0.000003 0.000000 0.000000 -0.000003 0.000000 0.000000 -0.000003 0.000000 
1.574654 63.355385 -6.151320 0.808290 -36.560059 -0.024975 0.000000 -0.000001 0.000000 -38.981088 6.669345 19.772651 48.970076 3.458751 -0.533283 -8.676700 1.485113 -10.997109 0.000000 -0.000000 0.000000 0.000002 -0.000002 -0.000001 -23.130933 -8.024578 -14.412117 54.529905 6.862221 -0.939548 -32.047562 -2.730562 7.881207 0.000000 0.000000 0.000000 0.000002 0.000000 -0.000000 10.728825 -0.167678 0.327245 5.619486 -0.104946 0.158612 5.619716 -0.086991 0.157502 -2.225313 2.001309 1.618211 -6.863733 14.448591 -9.942510 -0.000000 0.000000 -0.000000 -0.000000 0.000000 -0.000000 -0.000000 0.000000 -0.000000 -0.000000 0.000000 -0.000000 0.000001 0.000000 0.000000 -0.000000 0.000000 -0.000000 0.000001 0.000000 0.000000 -0.000000 0.000000 -0.000000 -0.000000 0.000000 -0.000000 1.462432 -23.380236 -4.765508 -75.674111 -2.659955 -26.934930 0.000075 -103.926628 0.000092 11.722082 -27.304180 4.371340 0.476762 13.806272 -2.556181 8.298565 13.115195 0.102507 -0.000002 0.000001 0.000002 5.270132 6.690844 -76.428396 5.270111 6.690801 -76.428423 0.000001 -0.000001 0.000002 5.696413 6.778929 -80.062064 5.700232 6.779577 -80.094527 0.000000 -0.000001 0.000002 7.106749 6.877480 -91.883079 7.106772 6.877528 -91.883092 -0.000000 0.000000 -0.000002 11.187735 6.745176 -91.856892 7.107174 2.791242 -91.887812 -0.000002 0.000000 0.000003 0.000001 0.000000 0.000002 1.195243 8.393596 -4.259427 -69.611041 21.158217 68.409467 0.000046 111.506089 -0.000051 -2.683715 13.966638 18.052566 -6.808520 3.907128 -1.203872 25.128628 -40.933993 8.421096 0.000001 0.000001 -0.000001 6.137582 -6.901038 83.283714 6.137576 -6.900993 83.283734 -0.000003 0.000000 0.000002 6.137575 -6.901026 83.283714 6.137587 -6.901014 83.283727 -0.000000 -0.000002 0.000001 6.137552 -6.900975 83.283707 6.137589 -6.901027 83.283741 -0.000001 -0.000002 -0.000004 6.137578 -6.901026 83.283714 6.137582 -6.901023 83.283741 -0.000000 -0.000001 0.000000 0.000002 0.000001 -0.000001 -0.000001 0.000000 0.000000 -0.000001 0.000000 -0.000001 -0.000001 0.000000 -0.000001 -0.000001 0.000000 -0.000001 -0.000001 0.000000 0.000000 -0.000001 0.000000 -0.000001 -0.000001 0.000000 -0.000001 -0.000001 0.000000 -0.000001 -0.000001 0.000000 0.000000 -0.000001 0.000000 -0.000001 0.000000 -0.000001 0.000000 0.000000 -0.000001 0.000000 0.000000 -0.000001 0.000000 
1.518035 63.346985 -6.139744 0.833355 -36.445363 -0.047880 -0.000000 -0.000000 0.000000 -39.057108 6.641095 19.840501 49.035946 3.348102 -0.525577 -8.668400 1.484798 -11.006289 0.000000 -0.000002 0.000000 -0.000001 0.000002 0.000001 -23.061041 -8.003079 -14.278987 54.573403 6.635303 -0.960393 -32.146022 -2.747991 7.906190 0.000000 -0.000002 -0.000000 -0.000002 -0.000003 -0.000002 10.737839 -0.109125 0.307498 5.625475 -0.074262 0.149033 5.625600 -0.056130 0.148005 -2.237669 2.011781 1.617411 -6.842750 14.488033 -9.913253 0.000001 0.000001 -0.000000 0.000001 0.000001 -0.000000 0.000001 0.000001 -0.000000 0.000001 0.000001 -0.000000 0.000001 -0.000000 0.000000 0.000001 0.000001 -0.000000 0.000001 -0.000000 0.000000 0.000001 0.000001 -0.000000 0.000001 0.000001 -0.000000 1.473541 -23.141296 -4.640973 -75.560375 -2.615567 -27.394752 0.000080 -103.946443 0.000087 11.736706 -27.442431 4.081133 0.476771 13.806270 -2.556187 8.298572 13.115193 0.102532 -0.000001 -0.000000 -0.000001 5.270133 6.690847 -76.428410 5.270113 6.690808 -76.428423 0.000001 0.000001 0.000000 5.696413 6.778926 -80.062084 5.700230 6.779577 -80.094500 0.000001 -0.000002 0.000002 7.106755 6.877477 -91.883092 7.106784 6.877526 -91.883099 -0.000001 0.000001 -0.000002 11.187739 6.745174 -91.856892 7.107173 2.791239 -91.887819 0.000000 -0.000000 -0.000001 0.000000 0.000002 0.000001 1.217875 8.619856 -4.144777 -69.450668 21.097788 68.146259 0.000028 111.505495 -0.000054 -2.683944 14.062367 17.795745 -6.808518 3.907129 -1.203862 25.128613 -40.933993 8.421096 0.000001 0.000000 -0.000000 6.137590 -6.901034 83.283727 6.137561 -6.900996 83.283707 0.000000 0.000000 0.000002 6.137590 -6.901026 83.283720 6.137584 -6.901013 83.283707 -0.000002 -0.000002 -0.000001 6.137564 -6.900979 83.283714 6.137587 -6.901028 83.283700 -0.000001 -0.000000 0.000001 6.137588 -6.901029 83.283714 6.137582 -6.901018 83.283700 0.000002 -0.000001 -0.000003 0.000003 0.000001 0.000000 0.000001 0.000002 0.000000 0.000001 0.000002 -0.000000 0.000001 0.000002 -0.000001 0.000001 0.000002 -0.000001 0.000001 0.000002 0.000000 0.000001 0.000002 0.000000 0.000001 0.000002 -0.000001 0.000001 0.000002 -0.000001 0.000001 0.000002 0.000000 0.000001 0.000002 0.000000 -0.000000 -0.000000 0.000000 -0.000000 -0.000000 0.000000 -0.000000 -0.000000 0.000000 
1.472413 63.345474 -6.118397 0.863077 -36.409112 -0.031482 0.000000 -0.000001 0.000000 -39.090641 6.607540 19.850090 49.098408 3.344273 -0.503051 -8.658203 1.488337 -11.055821 0.000000 -0.000000 -0.000000 0.000001 0.000000 0.000000 -23.005136 -8.009298 -14.205771 54.568410 6.488097 -0.981352 -32.236372 -2.759442 7.901410 -0.000000 0.000001 0.000000 -0.000002 0.000000 -0.000000 10.744439 -0.067393 0.287652 5.628916 -0.052147 0.139717 5.628931 -0.033794 0.138752 -2.242454 2.046167 1.572899 -6.813014 14.607370 -9.944837 0.000000 -0.000002 0.000001 0.000000 -0.000002 0.000001 0.000000 -0.000002 0.000001 0.000000 -0.000002 0.000001 0.000000 0.000000 0.000000 0.000000 -0.000002 0.000001 0.000000 0.000000 0.000000 0.000000 -0.000002 0.000001 0.000000 -0.000002 0.000001 1.460412 -23.080217 -4.699717 -75.359533 -2.771990 -27.440751 -0.000169 -104.009745 -0.000167 12.194627 -27.163063 4.688201 0.476757 13.806268 -2.556188 8.298562 13.115194 0.102536 -0.000001 0.000001 0.000002 5.270130 6.690845 -76.428410 5.270110 6.690800 -76.428396 0.000002 0.000001 -0.000003 5.696409 6.778924 -80.062084 5.700225 6.779568 -80.094521 -0.000000 0.000001 0.000001 7.106751 6.877478 -91.883106 7.106786 6.877534 -91.883133 -0.000000 0.000000 0.000002 11.187735 6.745172 -91.856899 7.107177 2.791238 -91.887812 -0.000001 0.000000 -0.000002 -0.000000 0.000001 0.000001 1.227866 8.725591 -4.081810 -69.349738 21.068147 68.102573 0.000075 111.463059 -0.000099 -2.664320 14.132963 17.657953 -6.808520 3.907127 -1.203860 25.128606 -40.933973 8.421091 -0.000000 0.000001 -0.000002 6.137589 -6.901037 83.283693 6.137566 -6.900986 83.283693 -0.000003 0.000001 -0.000001 6.137593 -6.901031 83.283693 6.137579 -6.901002 83.283700 0.000001 -0.000001 -0.000003 6.137567 -6.900982 83.283700 6.137585 -6.901012 83.283707 -0.000001 -0.000003 -0.000000 6.137579 -6.901028 83.283693 6.137586 -6.901017 83.283720 -0.000002 0.000001 -0.000003 0.000004 0.000000 0.000003 -0.000001 -0.000002 0.000001 0.000001 -0.000002 0.000001 -0.000001 -0.000002 0.000000 -0.000001 -0.000002 0.000000 -0.000001 -0.000002 0.000001 0.000001 -0.000002 0.000001 -0.000001 -0.000002 0.000000 -0.000001 -0.000002 0.000000 -0.000001 -0.000002 0.000001 0.000001 -0.000002 0.000001 0.000000 -0.000001 0.000000 0.000000 -0.000001 0.000000 0.000000 -0.000001 0.000000 
